<svg width="133" height="47" viewBox="0 0 133 47" fill="none" xmlns="http://www.w3.org/2000/svg">
<path d="M38.4206 30.7681H34.9646L34.2446 21.4081L32.6126 6.09607H32.2766L23.7326 27.2161H20.5646L12.4526 6.09607H12.0686L10.4366 21.1201L9.62056 30.7681H6.35656L9.57256 6.48499e-05H13.9406L15.5246 4.70406L22.1966 22.2241H22.4846L29.4926 4.41607L31.0766 6.48499e-05H35.3966L38.4206 30.7681ZM64.2956 30.7681H60.6956L60.1196 28.1761L58.8716 24.6241L53.1596 24.5761L48.0716 24.6241L46.7756 27.9841L46.1036 30.7681H42.5516L51.7676 6.86407H55.8956L64.2956 30.7681ZM57.8636 21.6961L53.8796 10.3681H53.5916L49.2236 21.6961L53.4476 21.7441L57.8636 21.6961ZM75.2261 22.8481V26.3041C75.2261 28.2561 74.7781 29.8561 73.8821 31.1041C73.0181 32.3521 71.4661 33.5201 69.2261 34.6081L67.7861 32.7361V32.4001C69.2901 31.5681 70.3461 30.7041 70.9541 29.8081C71.5941 28.8801 71.9141 27.7281 71.9141 26.3521V23.2801L71.8181 9.60007L67.2581 9.64807L67.0181 9.36007L67.2581 6.86407H75.3701L75.2261 22.8481ZM92.7202 6.57607C96.2082 6.57607 98.8802 7.60007 100.736 9.64807C102.624 11.6961 103.568 14.5921 103.568 18.3361C103.568 22.4001 102.56 25.5521 100.544 27.7921C98.5602 30.0001 95.7122 31.1041 92.0002 31.1041C88.5442 31.1041 85.8722 30.0641 83.9842 27.9841C82.0962 25.8721 81.1522 22.8801 81.1522 19.0081C81.1522 15.0401 82.1602 11.9841 84.1762 9.84007C86.1922 7.66407 89.0402 6.57607 92.7202 6.57607ZM92.3842 9.60007C89.8562 9.60007 87.9682 10.3201 86.7202 11.7601C85.5042 13.2001 84.8962 15.4721 84.8962 18.5761C84.8962 21.9041 85.5042 24.3201 86.7202 25.8241C87.9362 27.3281 89.7922 28.0801 92.2882 28.0801C94.8482 28.0801 96.7522 27.3441 98.0002 25.8721C99.2482 24.4001 99.8722 22.0961 99.8722 18.9601C99.8722 15.7281 99.2482 13.3601 98.0002 11.8561C96.7842 10.3521 94.9122 9.60007 92.3842 9.60007ZM121.023 21.1201C122.975 24.0961 125.135 27.0241 127.503 29.9041L127.455 30.3841C126.111 30.8001 125.007 31.0401 124.143 31.1041L123.519 30.7201C121.087 27.0401 119.247 24.1441 117.999 22.0321L113.487 22.0801V23.2801L113.583 30.7681H110.031L110.175 23.5681L110.031 6.86407L118.191 6.81607C120.719 6.81607 122.655 7.40807 123.999 8.59207C125.375 9.77607 126.063 11.4881 126.063 13.7281C126.063 15.3601 125.615 16.8161 124.719 18.0961C123.855 19.3761 122.623 20.3841 121.023 21.1201ZM113.535 19.1041L118.047 19.2481C120.895 18.4481 122.319 16.7041 122.319 14.0161C122.319 12.6081 121.903 11.5521 121.071 10.8481C120.239 10.1441 118.975 9.76007 117.279 9.69607L113.583 9.74407L113.535 19.1041Z" fill="white"/>
<path d="M27.2232 42.4536H28.4439C28.4049 42.9191 28.2747 43.3341 28.0533 43.6987C27.832 44.0601 27.5211 44.3449 27.1207 44.5532C26.7203 44.7616 26.2337 44.8657 25.6607 44.8657C25.2213 44.8657 24.8258 44.7876 24.4742 44.6313C24.1227 44.4718 23.8216 44.2472 23.5709 43.9575C23.3202 43.6646 23.1282 43.3114 22.9947 42.8979C22.8645 42.4845 22.7994 42.0223 22.7994 41.5112V40.9204C22.7994 40.4093 22.8661 39.9471 22.9996 39.5337C23.1363 39.1203 23.3316 38.7671 23.5855 38.4741C23.8395 38.1779 24.1438 37.9517 24.4986 37.7954C24.8567 37.6392 25.2587 37.561 25.7047 37.561C26.2711 37.561 26.7496 37.6652 27.1402 37.8735C27.5309 38.0819 27.8336 38.37 28.0484 38.7378C28.2665 39.1056 28.4 39.5272 28.4488 40.0024H27.2281C27.1956 39.6965 27.124 39.4344 27.0133 39.2163C26.9059 38.9982 26.7464 38.8322 26.5348 38.7183C26.3232 38.6011 26.0465 38.5425 25.7047 38.5425C25.4247 38.5425 25.1806 38.5946 24.9723 38.6987C24.7639 38.8029 24.5898 38.9559 24.4498 39.1577C24.3098 39.3595 24.204 39.6086 24.1324 39.9048C24.0641 40.1978 24.0299 40.533 24.0299 40.9106V41.5112C24.0299 41.8693 24.0608 42.1948 24.1227 42.4878C24.1878 42.7775 24.2854 43.0265 24.4156 43.2349C24.5491 43.4432 24.7184 43.6043 24.9234 43.7183C25.1285 43.8322 25.3743 43.8892 25.6607 43.8892C26.0091 43.8892 26.2906 43.8338 26.5055 43.7231C26.7236 43.6125 26.888 43.4513 26.9986 43.2397C27.1126 43.0249 27.1874 42.7629 27.2232 42.4536ZM32.2355 37.6587V44.7681H31.0197V37.6587H32.2355ZM34.467 37.6587V38.6353H28.8078V37.6587H34.467ZM37.5213 42.2925L39.3279 37.6587H40.6805L38.2098 43.479C38.1316 43.658 38.0421 43.8322 37.9412 44.0015C37.8436 44.1675 37.7247 44.3156 37.5848 44.4458C37.4448 44.576 37.2755 44.6802 37.077 44.7583C36.8784 44.8332 36.6375 44.8706 36.3543 44.8706C36.2794 44.8706 36.1883 44.8674 36.0809 44.8608C35.9767 44.8543 35.9002 44.8478 35.8514 44.8413L35.8611 43.8794C35.9002 43.8859 35.9653 43.8908 36.0564 43.894C36.1508 43.8973 36.2192 43.8989 36.2615 43.8989C36.4503 43.8989 36.6001 43.868 36.7107 43.8062C36.8214 43.741 36.9093 43.6548 36.9744 43.5474C37.0428 43.4367 37.103 43.3162 37.1551 43.186L37.5213 42.2925ZM36.1639 37.6587L37.951 41.5942L38.3025 42.8735L37.3504 42.9077L34.826 37.6587H36.1639ZM46.7279 43.7964V44.7681H41.4887V43.7964H46.7279ZM41.7914 43.7964V46.5161H40.6195L40.5756 43.7964H41.7914ZM47.6752 43.7964L47.602 46.5112H46.4496V43.7964H47.6752ZM45.8686 37.6587V38.6353H42.5873V37.6587H45.8686ZM46.8061 37.6587V44.7681H45.5854V37.6587H46.8061ZM42.3432 37.6587H43.5688L43.3979 40.5396C43.3718 40.9953 43.3246 41.4054 43.2563 41.77C43.1879 42.1346 43.1049 42.4618 43.0072 42.7515C42.9128 43.0379 42.8054 43.2918 42.685 43.5132C42.5645 43.7313 42.4359 43.9201 42.2992 44.0796C42.1625 44.2391 42.0225 44.3758 41.8793 44.4897C41.7393 44.6004 41.601 44.6932 41.4643 44.7681H40.81V43.7964H41.1273C41.2152 43.715 41.3129 43.5978 41.4203 43.4448C41.5277 43.2886 41.6319 43.0851 41.7328 42.8345C41.837 42.5806 41.9281 42.2664 42.0063 41.8921C42.0844 41.5177 42.1381 41.0669 42.1674 40.5396L42.3432 37.6587ZM49.7139 42.771L52.8682 37.6587H54.0938V44.7681H52.8682V39.6509L49.7139 44.7681H48.4932V37.6587H49.7139V42.771ZM59.316 42.1021H57.358L56.8746 41.9019C56.3375 41.7326 55.9257 41.4754 55.6393 41.1304C55.3528 40.7853 55.2096 40.3507 55.2096 39.8267C55.2096 39.3579 55.3137 38.9624 55.5221 38.6401C55.7304 38.3179 56.0266 38.0737 56.4107 37.9077C56.7981 37.7417 57.2555 37.6587 57.7828 37.6587H60.1705V44.7681H58.94V38.6353H57.7828C57.3271 38.6353 56.9885 38.7459 56.7672 38.9673C56.5458 39.1886 56.4352 39.4946 56.4352 39.8853C56.4352 40.1522 56.484 40.3817 56.5816 40.5737C56.6826 40.7625 56.8307 40.909 57.026 41.0132C57.2245 41.1141 57.4703 41.1646 57.7633 41.1646H59.316V42.1021ZM57.8219 41.5552L56.1715 44.7681H54.8531L56.523 41.5552H57.8219ZM69.5018 43.7964V44.7681H64.2625V43.7964H69.5018ZM64.5652 43.7964V46.5161H63.3934L63.3494 43.7964H64.5652ZM70.449 43.7964L70.3758 46.5112H69.2234V43.7964H70.449ZM68.6424 37.6587V38.6353H65.3611V37.6587H68.6424ZM69.5799 37.6587V44.7681H68.3592V37.6587H69.5799ZM65.117 37.6587H66.3426L66.1717 40.5396C66.1456 40.9953 66.0984 41.4054 66.0301 41.77C65.9617 42.1346 65.8787 42.4618 65.7811 42.7515C65.6867 43.0379 65.5792 43.2918 65.4588 43.5132C65.3383 43.7313 65.2098 43.9201 65.073 44.0796C64.9363 44.2391 64.7964 44.3758 64.6531 44.4897C64.5132 44.6004 64.3748 44.6932 64.2381 44.7681H63.5838V43.7964H63.9012C63.9891 43.715 64.0867 43.5978 64.1941 43.4448C64.3016 43.2886 64.4057 43.0851 64.5066 42.8345C64.6108 42.5806 64.702 42.2664 64.7801 41.8921C64.8582 41.5177 64.9119 41.0669 64.9412 40.5396L65.117 37.6587ZM72.4877 42.771L75.642 37.6587H76.8676V44.7681H75.642V39.6509L72.4877 44.7681H71.267V37.6587H72.4877V42.771ZM80.6738 41.3599H79.6875V40.6616H80.5371C80.8398 40.6616 81.0856 40.6177 81.2744 40.5298C81.4632 40.4386 81.5999 40.3133 81.6846 40.1538C81.7725 39.991 81.8164 39.8022 81.8164 39.5874C81.8164 39.3953 81.7676 39.2196 81.6699 39.0601C81.5755 38.9006 81.429 38.7736 81.2305 38.6792C81.0319 38.5815 80.7764 38.5327 80.4639 38.5327C80.2295 38.5327 80.0163 38.575 79.8242 38.6597C79.6322 38.7443 79.4792 38.8631 79.3652 39.0161C79.2546 39.1691 79.1992 39.3498 79.1992 39.5581H77.9736C77.9736 39.2489 78.0387 38.9722 78.1689 38.728C78.3024 38.4806 78.4831 38.2707 78.7109 38.0981C78.9421 37.9256 79.2074 37.7938 79.5068 37.7026C79.8096 37.6082 80.1286 37.561 80.4639 37.561C80.8545 37.561 81.2077 37.605 81.5234 37.6929C81.8392 37.7775 82.111 37.9045 82.3389 38.0737C82.5667 38.243 82.7409 38.4546 82.8613 38.7085C82.9818 38.9591 83.042 39.2505 83.042 39.5825C83.042 39.8267 82.985 40.0562 82.8711 40.271C82.7604 40.4858 82.6009 40.6746 82.3926 40.8374C82.1842 41.0002 81.9336 41.1287 81.6406 41.2231C81.3509 41.3143 81.0286 41.3599 80.6738 41.3599ZM79.6875 40.9351H80.6738C81.0677 40.9351 81.4176 40.9757 81.7236 41.0571C82.0296 41.1385 82.2884 41.2573 82.5 41.4136C82.7116 41.5698 82.8727 41.7635 82.9834 41.9946C83.0941 42.2225 83.1494 42.4845 83.1494 42.7808C83.1494 43.1128 83.0827 43.409 82.9492 43.6694C82.819 43.9266 82.6335 44.1447 82.3926 44.3237C82.1517 44.5028 81.8669 44.6379 81.5381 44.729C81.2126 44.8201 80.8545 44.8657 80.4639 44.8657C80.1481 44.8657 79.8356 44.8267 79.5264 44.7485C79.2204 44.6672 78.9421 44.5435 78.6914 44.3774C78.444 44.2082 78.2454 43.9933 78.0957 43.7329C77.946 43.4725 77.8711 43.16 77.8711 42.7954H79.1016C79.1016 42.9972 79.1585 43.1828 79.2725 43.3521C79.3896 43.5181 79.5492 43.6515 79.751 43.7524C79.9561 43.8501 80.1937 43.8989 80.4639 43.8989C80.7731 43.8989 81.0352 43.8501 81.25 43.7524C81.4681 43.6548 81.6341 43.5213 81.748 43.3521C81.8652 43.1828 81.9238 42.9924 81.9238 42.7808C81.9238 42.5789 81.8929 42.4048 81.8311 42.2583C81.7725 42.1086 81.6846 41.9881 81.5674 41.897C81.4502 41.8026 81.3053 41.7326 81.1328 41.687C80.9603 41.6414 80.7617 41.6187 80.5371 41.6187H79.6875V40.9351ZM86.9801 38.606L84.8561 44.7681H83.5719L86.2477 37.6587H87.068L86.9801 38.606ZM88.7574 44.7681L86.6285 38.606L86.5357 37.6587H87.3609L90.0465 44.7681H88.7574ZM88.6549 42.1313V43.103H84.7877V42.1313H88.6549ZM91.9533 42.771L95.1076 37.6587H96.3332V44.7681H95.1076V39.6509L91.9533 44.7681H90.7326V37.6587H91.9533V42.771ZM94.2629 35.8374H95.1369C95.1369 36.1076 95.0718 36.3468 94.9416 36.5552C94.8147 36.7603 94.6324 36.9214 94.3947 37.0386C94.1604 37.1558 93.8804 37.2144 93.5549 37.2144C93.0633 37.2144 92.6744 37.0874 92.3879 36.8335C92.1047 36.5763 91.9631 36.2443 91.9631 35.8374H92.8371C92.8371 36.0197 92.8908 36.1808 92.9982 36.3208C93.1089 36.4575 93.2945 36.5259 93.5549 36.5259C93.812 36.5259 93.9943 36.4575 94.1018 36.3208C94.2092 36.1808 94.2629 36.0197 94.2629 35.8374ZM102.4 40.6274V41.5991H98.6258V40.6274H102.4ZM98.9285 37.6587V44.7681H97.7029V37.6587H98.9285ZM103.343 37.6587V44.7681H102.122V37.6587H103.343ZM107.559 38.606L105.435 44.7681H104.151L106.827 37.6587H107.647L107.559 38.606ZM109.336 44.7681L107.207 38.606L107.115 37.6587H107.94L110.625 44.7681H109.336ZM109.234 42.1313V43.103H105.367V42.1313H109.234Z" fill="white"/>
</svg>
