<svg width="54" height="54" viewBox="0 0 54 54" fill="none" xmlns="http://www.w3.org/2000/svg">
<g clip-path="url(#clip0_413_688)">
<path d="M27.0224 0C12.1229 0 0.0449219 12.078 0.0449219 26.9775C0.0449219 38.412 7.15042 48.1815 17.1854 52.1122C16.9402 49.9815 16.7422 46.6942 17.2732 44.3632C17.7614 42.2527 20.4254 30.951 20.4254 30.951C20.4254 30.951 19.6267 29.331 19.6267 26.955C19.6267 23.202 21.8024 20.4053 24.5114 20.4053C26.8199 20.4053 27.9314 22.1378 27.9314 24.2033C27.9314 26.5117 26.4667 29.9767 25.6882 33.1965C25.0447 35.883 27.0427 38.0812 29.6842 38.0812C34.4812 38.0812 38.1667 33.0187 38.1667 25.7355C38.1667 19.2735 33.5272 14.7668 26.8874 14.7668C19.2059 14.7668 14.6969 20.5177 14.6969 26.469C14.6969 28.7775 15.5857 31.266 16.6949 32.6205C16.9199 32.8838 16.9424 33.129 16.8749 33.3945C16.6747 34.2383 16.2089 36.081 16.1189 36.459C16.0087 36.9473 15.7184 37.0575 15.2077 36.8145C11.8327 35.2372 9.72217 30.33 9.72217 26.3565C9.72217 17.8515 15.8939 10.0372 27.5512 10.0372C36.8999 10.0372 44.1809 16.6995 44.1809 25.6252C44.1809 34.929 38.3197 42.4125 30.1927 42.4125C27.4612 42.4125 24.8849 40.9905 24.0209 39.303C24.0209 39.303 22.6664 44.4533 22.3334 45.72C21.7349 48.0735 20.0902 51.0052 18.9809 52.803C21.5144 53.577 24.1807 54 26.9774 54C41.8769 54 53.9549 41.922 53.9549 27.0225C53.9999 12.078 41.9219 0 27.0224 0Z" fill="#777777"/>
</g>
<defs>
<clipPath id="clip0_413_688">
<rect width="54" height="54" fill="white"/>
</clipPath>
</defs>
</svg>
