<svg width="22" height="22" viewBox="0 0 22 22" fill="none" xmlns="http://www.w3.org/2000/svg">
<g clip-path="url(#clip0_403_469)">
<path d="M20.4144 1.62252L19.3877 0.724183C18.4527 -0.210817 16.8669 -0.25665 15.8586 0.770016L14.1444 3.01585C13.1819 3.97835 13.1819 5.54585 14.1444 6.49918L15.5102 7.90168C14.0252 11.385 11.2844 14.135 7.91107 15.51L6.50857 14.1442C6.04107 13.6767 5.42691 13.42 4.7669 13.42C4.1069 13.42 3.49274 13.6767 3.07107 14.1075L0.742738 15.9042C-0.219762 16.8667 -0.219762 18.4342 0.724405 19.3692L1.6594 20.4417C2.66774 21.45 4.02441 22.0092 5.50024 22.0092C12.6044 22.0092 22.0186 12.5858 22.0186 5.49085C22.0186 4.02418 21.4594 2.65835 20.4327 1.63168L20.4144 1.62252ZM5.4819 21.0833C4.25357 21.0833 3.12607 20.625 2.31024 19.8092L1.37524 18.7275C0.770238 18.1225 0.770238 17.1417 1.3294 16.5733L3.65774 14.7767C3.95107 14.4833 4.33607 14.3183 4.75774 14.3183C5.17941 14.3183 5.5644 14.4833 5.85774 14.7767L7.48024 16.3625C7.60857 16.4908 7.7919 16.5275 7.96607 16.4633C11.7886 15.0058 14.8961 11.8983 16.4819 7.95668C16.5461 7.79168 16.5094 7.59918 16.3811 7.46168L14.7952 5.83918C14.1902 5.23418 14.1902 4.25335 14.8319 3.60252L16.5461 1.35668C17.1511 0.751683 18.1319 0.751683 18.7644 1.37502L19.7911 2.27335C20.6252 3.10752 21.0836 4.23502 21.0836 5.46335C21.0836 12.0267 12.0452 21.065 5.4819 21.065V21.0833Z" fill="white"/>
</g>
<defs>
<clipPath id="clip0_403_469">
<rect width="22" height="22" fill="white"/>
</clipPath>
</defs>
</svg>
