<svg width="54" height="54" viewBox="0 0 54 54" fill="none" xmlns="http://www.w3.org/2000/svg">
<g clip-path="url(#clip0_413_685)">
<path fill-rule="evenodd" clip-rule="evenodd" d="M27 0C12.0893 0 0 12.0893 0 27C0 41.9108 12.0893 54 27 54C41.9108 54 54 41.9108 54 27C54 12.0893 41.9108 0 27 0ZM39.5145 18.3623C39.1095 22.6305 37.35 32.9917 36.4567 37.773C36.0787 39.798 35.3317 40.4753 34.6118 40.5405C33.0435 40.6845 31.8533 39.5033 30.3345 38.5088C27.9585 36.9517 26.6152 35.982 24.309 34.461C21.6427 32.7038 23.3708 31.7385 24.8895 30.1612C25.2878 29.7472 32.1953 23.463 32.3302 22.8938C32.346 22.8218 32.364 22.5563 32.2043 22.4167C32.0445 22.2773 31.8127 22.3245 31.6462 22.3628C31.4077 22.4167 27.612 24.9255 20.2568 29.889C19.179 30.6293 18.2025 30.9893 17.3273 30.9713C16.3643 30.951 14.5103 30.4268 13.131 29.9767C11.4412 29.4277 10.0957 29.1353 10.2128 28.2038C10.2735 27.7178 10.9418 27.2205 12.2198 26.712C20.0903 23.283 25.3395 21.0218 27.9653 19.9283C35.4645 16.8098 37.0215 16.2675 38.0385 16.2495C39.312 16.2315 39.618 17.2823 39.5145 18.3623Z" fill="#777777"/>
</g>
<defs>
<clipPath id="clip0_413_685">
<rect width="54" height="54" fill="white"/>
</clipPath>
</defs>
</svg>
