<svg width="54" height="54" viewBox="0 0 54 54" fill="none" xmlns="http://www.w3.org/2000/svg">
<g clip-path="url(#clip0_413_686)">
<path d="M50.211 3.789C46.422 0 40.3223 0 28.125 0H25.875C13.6777 0 7.578 0 3.789 3.789C0 7.578 0 13.6777 0 25.875V28.125C0 40.3223 0 46.4198 3.789 50.211C7.578 54.0023 13.6777 54 25.875 54H28.125C40.3223 54 46.4198 54 50.211 50.211C54 46.422 54 40.3223 54 28.125V25.875C54 13.6777 54 7.578 50.211 3.789ZM43.8818 38.25H39.9443C38.4435 38.25 38.0025 37.053 35.3317 34.3823C32.994 32.13 31.9928 31.8375 31.41 31.8375C30.6157 31.8375 30.3795 32.0625 30.3795 33.1875V36.7178C30.3795 37.6852 30.0712 38.25 27.567 38.25C23.3955 38.25 18.81 35.7165 15.5543 31.0455C10.6718 24.2033 9.3375 19.0305 9.3375 17.9888C9.3375 17.4037 9.5625 16.875 10.6875 16.875H14.6272C15.633 16.875 16.011 17.316 16.389 18.405C18.315 24.0143 21.564 28.917 22.8983 28.917C23.3978 28.917 23.6273 28.6853 23.6273 27.4163V21.618C23.481 18.9495 22.0613 18.729 22.0613 17.7795C22.0613 17.3407 22.437 16.875 23.0625 16.875H29.2523C30.087 16.875 30.3773 17.3205 30.3773 18.3217V26.1225C30.3773 26.955 30.7395 27.2475 30.9893 27.2475C31.491 27.2475 31.9072 26.955 32.8252 26.037C35.6625 22.8667 37.665 17.9865 37.665 17.9865C37.917 17.4015 38.376 16.8727 39.3795 16.8727H43.317C44.5073 16.8727 44.7593 17.4848 44.5073 18.3195C44.0055 20.6145 39.2085 27.3713 39.2085 27.3713C38.79 28.0395 38.6235 28.3725 39.2085 29.124C39.627 29.709 41.0018 30.8767 41.9198 31.9613C43.6118 33.8647 44.8875 35.469 45.243 36.576C45.5715 37.6875 45.0068 38.25 43.8818 38.25Z" fill="#777777"/>
</g>
<defs>
<clipPath id="clip0_413_686">
<rect width="54" height="54" fill="white"/>
</clipPath>
</defs>
</svg>
