<svg width="54" height="54" viewBox="0 0 54 54" fill="none" xmlns="http://www.w3.org/2000/svg">
<g clip-path="url(#clip0_413_687)">
<path fill-rule="evenodd" clip-rule="evenodd" d="M46.0414 7.848C40.9879 2.79 34.2694 0.00225 27.1122 0C12.3634 0 0.35968 12.0015 0.35293 26.757C0.35068 31.473 1.58368 36.0765 3.92593 40.1355L0.12793 54L14.3119 50.2785C18.2202 52.4115 22.6212 53.5343 27.0987 53.5365H27.1099C41.8564 53.5365 53.8624 41.5327 53.8692 26.7773C53.8737 19.629 51.0927 12.9037 46.0414 7.848ZM27.1122 49.0163H27.1032C23.1117 49.0163 19.1989 47.943 15.7834 45.9157L14.9712 45.4342L6.55393 47.6415L8.80168 39.4335L8.27293 38.592C6.04543 35.0505 4.87093 30.9578 4.87318 26.757C4.87768 14.4945 14.8564 4.518 27.1234 4.518C33.0634 4.518 38.6479 6.8355 42.8464 11.0385C47.0449 15.2438 49.3557 20.8305 49.3534 26.7728C49.3467 39.0397 39.3702 49.0163 27.1122 49.0163ZM39.3117 32.3595C38.6434 32.0243 35.3562 30.4065 34.7419 30.1838C34.1299 29.961 33.6844 29.8485 33.2367 30.5168C32.7889 31.185 31.5109 32.6925 31.1194 33.1403C30.7302 33.5858 30.3387 33.642 29.6704 33.3068C29.0022 32.9715 26.8467 32.2673 24.2929 29.988C22.3062 28.215 20.9629 26.0257 20.5737 25.3552C20.1844 24.6847 20.5332 24.3248 20.8662 23.9918C21.1677 23.6925 21.5344 23.211 21.8697 22.8195C22.2072 22.4325 22.3174 22.1535 22.5424 21.7058C22.7652 21.2603 22.6549 20.8688 22.4862 20.5335C22.3174 20.2005 20.9809 16.9088 20.4252 15.57C19.8829 14.265 19.3317 14.4427 18.9199 14.4225C18.5307 14.4022 18.0852 14.4 17.6374 14.4C17.1919 14.4 16.4674 14.5665 15.8554 15.237C15.2434 15.9075 13.5154 17.5253 13.5154 20.8148C13.5154 24.1065 15.9117 27.2857 16.2447 27.7312C16.5777 28.1768 20.9584 34.9313 27.6657 37.827C29.2609 38.5155 30.5074 38.9272 31.4772 39.2355C33.0792 39.744 34.5372 39.672 35.6892 39.501C36.9739 39.3097 39.6447 37.8832 40.2027 36.3218C40.7607 34.7603 40.7607 33.4193 40.5919 33.1425C40.4254 32.8612 39.9799 32.6948 39.3117 32.3595Z" fill="#777777"/>
</g>
<defs>
<clipPath id="clip0_413_687">
<rect width="54" height="54" fill="white"/>
</clipPath>
</defs>
</svg>
