<svg width="80" height="27" viewBox="0 0 133 47" fill="none" xmlns="http://www.w3.org/2000/svg">
<path d="M38.4206 30.7681H34.9646L34.2446 21.4081L32.6126 6.09607H32.2766L23.7326 27.2161H20.5646L12.4526 6.09607H12.0686L10.4366 21.1201L9.62056 30.7681H6.35656L9.57256 6.48499e-05H13.9406L15.5246 4.70406L22.1966 22.2241H22.4846L29.4926 4.41607L31.0766 6.48499e-05H35.3966L38.4206 30.7681ZM64.2956 30.7681H60.6956L60.1196 28.1761L58.8716 24.6241L53.1596 24.5761L48.0716 24.6241L46.7756 27.9841L46.1036 30.7681H42.5516L51.7676 6.86407H55.8956L64.2956 30.7681ZM57.8636 21.6961L53.8796 10.3681H53.5916L49.2236 21.6961L53.4476 21.7441L57.8636 21.6961ZM75.2261 22.8481V26.3041C75.2261 28.2561 74.7781 29.8561 73.8821 31.1041C73.0181 32.3521 71.4661 33.5201 69.2261 34.6081L67.7861 32.7361V32.4001C69.2901 31.5681 70.3461 30.7041 70.9541 29.8081C71.5941 28.8801 71.9141 27.7281 71.9141 26.3521V23.2801L71.8181 9.60007L67.2581 9.64807L67.0181 9.36007L67.2581 6.86407H75.3701L75.2261 22.8481ZM92.7202 6.57607C96.2082 6.57607 98.8802 7.60007 100.736 9.64807C102.624 11.6961 103.568 14.5921 103.568 18.3361C103.568 22.4001 102.56 25.5521 100.544 27.7921C98.5602 30.0001 95.7122 31.1041 92.0002 31.1041C88.5442 31.1041 85.8722 30.0641 83.9842 27.9841C82.0962 25.8721 81.1522 22.8801 81.1522 19.0081C81.1522 15.0401 82.1602 11.9841 84.1762 9.84007C86.1922 7.66407 89.0402 6.57607 92.7202 6.57607ZM92.3842 9.60007C89.8562 9.60007 87.9682 10.3201 86.7202 11.7601C85.5042 13.2001 84.8962 15.4721 84.8962 18.5761C84.8962 21.9041 85.5042 24.3201 86.7202 25.8241C87.9362 27.3281 89.7922 28.0801 92.2882 28.0801C94.8482 28.0801 96.7522 27.3441 98.0002 25.8721C99.2482 24.4001 99.8722 22.0961 99.8722 18.9601C99.8722 15.7281 99.2482 13.3601 98.0002 11.8561C96.7842 10.3521 94.9122 9.60007 92.3842 9.60007ZM121.023 21.1201C122.975 24.0961 125.135 27.0241 127.503 29.9041L127.455 30.3841C126.111 30.8001 125.007 31.0401 124.143 31.1041L123.519 30.7201C121.087 27.0401 119.247 24.1441 117.999 22.0321L113.487 22.0801V23.2801L113.583 30.7681H110.031L110.175 23.5681L110.031 6.86407L118.191 6.81607C120.719 6.81607 122.655 7.40807 123.999 8.59207C125.375 9.77607 126.063 11.4881 126.063 13.7281C126.063 15.3601 125.615 16.8161 124.719 18.0961C123.855 19.3761 122.623 20.3841 121.023 21.1201ZM113.535 19.1041L118.047 19.2481C120.895 18.4481 122.319 16.7041 122.319 14.0161C122.319 12.6081 121.903 11.5521 121.071 10.8481C120.239 10.1441 118.975 9.76007 117.279 9.69607L113.583 9.74407L113.535 19.1041Z" fill="white"/>
</svg>
